<svg xmlns="http://www.w3.org/2000/svg" width="22.66" height="22.66" viewBox="0 0 22.66 22.66">
  <g id="グループ_4" data-name="グループ 4" transform="translate(-1413 -2213.977)">
    <circle id="楕円形_1" data-name="楕円形 1" cx="11.33" cy="11.33" r="11.33" transform="translate(1413 2213.977)"/>
    <g id="グループ_3" data-name="グループ 3" transform="translate(1418.07 2220.849)">
      <path id="パス_10" data-name="パス 10" d="M38.3,35.3a5.4,5.4,0,0,1-1.556.426,2.716,2.716,0,0,0,1.191-1.5,5.421,5.421,0,0,1-1.72.657,2.71,2.71,0,0,0-4.615,2.47,7.688,7.688,0,0,1-5.582-2.83,2.711,2.711,0,0,0,.838,3.616,2.689,2.689,0,0,1-1.227-.339c0,.012,0,.023,0,.034a2.71,2.71,0,0,0,2.173,2.655,2.719,2.719,0,0,1-1.223.047,2.711,2.711,0,0,0,2.53,1.881A5.467,5.467,0,0,1,25.1,43.539,7.7,7.7,0,0,0,36.959,37.05c0-.117,0-.234-.008-.35A5.492,5.492,0,0,0,38.3,35.3Z" transform="translate(-25.103 -34.028)" fill="#f1f2f2"/>
    </g>
  </g>
</svg>
