<!--?xml version="1.0" encoding="utf-8"?-->
<!-- Generator: Adobe Illustrator 18.1.1, SVG Export Plug-In . SVG Version: 6.00 Build 0)  -->

<svg version="1.1" id="_x32_" xmlns="http://www.w3.org/2000/svg" xmlns:xlink="http://www.w3.org/1999/xlink" x="0px" y="0px" viewBox="0 0 512 512" style="width: 256px; height: 256px; opacity: 1;" xml:space="preserve">
<style type="text/css">
	.st0{fill:#4B4B4B;}
</style>
<g>
	<path class="st0" d="M368.974,214.45c15.112-22.018,24.072-48.684,24.072-77.404C393.046,61.352,331.703,0.01,256.009,0
		c-75.693,0.01-137.036,61.352-137.055,137.046c0,28.719,8.96,55.385,24.092,77.404c-35.096,31.145-57.402,76.53-57.402,127.203
		C85.662,435.74,161.913,512,256.009,512c94.078,0,170.348-76.26,170.348-170.347C426.357,290.98,404.069,245.595,368.974,214.45z
		 M357.615,443.269c-26.042,26.024-61.881,42.076-101.606,42.084c-39.724-0.009-75.563-16.061-101.624-42.084
		c-26.024-26.052-42.085-61.892-42.085-101.616c0-46.788,22.399-88.13,57.068-114.442c2.919-2.212,4.778-5.494,5.186-9.137
		c0.409-3.634-0.687-7.25-3.048-10.056c-16.153-19.24-25.894-43.898-25.894-70.972c0-30.523,12.343-58.034,32.326-78.054
		c20.02-20.002,47.531-32.336,78.072-32.345c30.524,0.01,58.035,12.343,78.054,32.345c20.002,20.02,32.326,47.531,32.326,78.054
		c0,27.074-9.722,51.732-25.894,70.972c-2.361,2.806-3.458,6.422-3.048,10.056c0.408,3.643,2.286,6.925,5.204,9.137
		c34.65,26.312,57.05,67.654,57.05,114.442C399.701,381.377,383.64,417.217,357.615,443.269z" style="fill: rgb(75, 75, 75);"></path>
	<path class="st0" d="M221.713,106.542c0-8.542-6.914-15.466-15.466-15.466c-8.532,0-15.466,6.924-15.466,15.466
		c0,8.541,6.934,15.466,15.466,15.466C214.799,122.008,221.713,115.083,221.713,106.542z" style="fill: rgb(75, 75, 75);"></path>
	<path class="st0" d="M300.232,91.076c-8.532,0-15.466,6.924-15.466,15.466c0,8.541,6.933,15.466,15.466,15.466
		c8.552,0,15.466-6.925,15.466-15.466C315.698,98,308.783,91.076,300.232,91.076z" style="fill: rgb(75, 75, 75);"></path>
	<path class="st0" d="M214.483,154.678c-0.038-0.158,0-0.316-0.038-0.474c-0.037-0.148-0.149-0.261-0.186-0.419L214.483,154.678z" style="fill: rgb(75, 75, 75);"></path>
	<path class="st0" d="M247.979,133.849l-27.865,10.066c-4.238,1.534-6.58,5.93-5.669,10.289c1.339,4.164,5.466,6.803,9.833,6.144
		l31.118-4.731C255.396,155.616,262.813,140.782,247.979,133.849z" style="fill: rgb(75, 75, 75);"></path>
	<path class="st0" d="M252.83,249.183c-8.773,0-15.856,7.101-15.856,15.856c0,8.765,7.083,15.856,15.856,15.856
		c8.756,0,15.857-7.091,15.857-15.856C268.687,256.284,261.586,249.183,252.83,249.183z" style="fill: rgb(75, 75, 75);"></path>
	<path class="st0" d="M252.83,325.332c-8.773,0-15.856,7.101-15.856,15.856c0,8.764,7.083,15.856,15.856,15.856
		c8.756,0,15.857-7.092,15.857-15.856C268.687,332.433,261.586,325.332,252.83,325.332z" style="fill: rgb(75, 75, 75);"></path>
	<path class="st0" d="M252.83,401.48c-8.773,0-15.856,7.101-15.856,15.857c0,8.764,7.083,15.856,15.856,15.856
		c8.756,0,15.857-7.092,15.857-15.856C268.687,408.582,261.586,401.48,252.83,401.48z" style="fill: rgb(75, 75, 75);"></path>
</g>
</svg>
